<svg data-v-fde0c5aa="" xmlns="http://www.w3.org/2000/svg" viewBox="0 0 100 100"><defs data-v-fde0c5aa=""><linearGradient data-v-fde0c5aa="" gradientTransform="rotate(25)" id="c401c4c2-8eff-4501-84a7-5db3f94db78d" x1="0%" y1="0%" x2="100%" y2="0%"><stop data-v-fde0c5aa="" offset="0%" stop-color="#5500ff" stop-opacity="1"></stop><stop data-v-fde0c5aa="" offset="100%" stop-color="#e92d9c" stop-opacity="1"></stop></linearGradient></defs><g data-v-fde0c5aa="" id="8c877b82-255e-45d3-a9de-aea951939897" stroke="none" fill="url(#c401c4c2-8eff-4501-84a7-5db3f94db78d)"><path d="M73.626 28H44.794l-1.808-4.202a15.645 15.645 0 001.723-4.919C46.182 10.31 40.411 2.148 31.848.674A15.895 15.895 0 0029.16.447a15.723 15.723 0 00-15.519 13.101 15.666 15.666 0 002.661 11.771c1.376 1.947 3.174 3.509 5.19 4.64A13.314 13.314 0 0015 41.412v45.336C15 94.108 20.928 100 28.29 100h36.472c.645 0 1.262-.209 1.715-.666.176-.178.312-.361.424-.58l18.785-18.915c.772-.403 1.314-1.19 1.314-2.121V41.412C87 34.049 80.989 28 73.626 28zM20 41.412c0-4.7 3.59-8.412 8.29-8.412h3.479l14.694 14.049C47.096 47.8 48 48.102 49 48.102v.042c1 0 1.842-.462 2.372-1.271.346-.526.801-1.578.119-3.146L46.857 33h26.769C78.327 33 83 36.711 83 41.412v33.912l-7.059.052c-3.562.028-7.116 1.442-9.617 3.982-2.501 2.541-3.969 5.769-3.94 9.333L62.329 95H28.29c-4.7 0-8.29-3.555-8.29-8.252V41.412zm.246-18.879a10.865 10.865 0 01-1.848-8.166 10.905 10.905 0 0110.761-9.088c.622 0 1.251.054 1.87.16 5.94 1.022 9.943 6.691 8.922 12.633a10.884 10.884 0 01-1.678 4.221 2.416 2.416 0 00-.215 2.292l5.558 13.006-10.362-9.978a2.415 2.415 0 00-2.114-.634 10.82 10.82 0 01-3.82.018 10.845 10.845 0 01-7.074-4.464z"></path><path d="M27.041 57h47.057c1.266 0 2.291-1.235 2.291-2.5S75.363 52 74.098 52H27.041c-1.265 0-2.29 1.235-2.29 2.5s1.025 2.5 2.29 2.5zM27.041 70h47.057c1.266 0 2.291-1.235 2.291-2.5S75.363 65 74.098 65H27.041c-1.265 0-2.29 1.235-2.29 2.5s1.025 2.5 2.29 2.5zM27.041 83h28.057c1.266 0 2.291-1.235 2.291-2.5S56.363 78 55.098 78H27.041c-1.265 0-2.29 1.235-2.29 2.5s1.025 2.5 2.29 2.5z"></path></g><!----></svg>